<svg width="336" height="75" viewBox="0 0 336 75" fill="none" xmlns="http://www.w3.org/2000/svg">
<path d="M10.464 73C8.864 73 7.904 72.488 7.584 71.464C7.328 70.44 7.2 69.448 7.2 68.488V36.616H0.672V34.216C2.464 34.216 3.808 34.152 4.704 34.024C5.664 33.896 6.304 33.544 6.624 32.968C6.944 32.392 7.104 31.4 7.104 29.992C7.168 28.584 7.2 26.632 7.2 24.136H9.792V34.216H18.912V36.616H9.792V70.6H18.912V73H10.464ZM39.5588 73.864C35.9748 73.864 32.9668 72.968 30.5348 71.176C28.1028 69.32 26.2788 66.888 25.0628 63.88C23.8468 60.808 23.2387 57.448 23.2387 53.8C23.2387 49.96 23.8787 46.536 25.1587 43.528C26.4388 40.52 28.2948 38.152 30.7268 36.424C33.1588 34.632 36.1028 33.736 39.5588 33.736C43.0148 33.736 45.9268 34.6 48.2948 36.328C50.6628 37.992 52.4548 40.232 53.6708 43.048H53.7668V34.216H56.3588V73H54.3428L53.8628 64.36H53.6708C52.4548 67.176 50.6628 69.48 48.2948 71.272C45.9268 73 43.0148 73.864 39.5588 73.864ZM40.3268 71.176C44.6788 71.176 47.9748 69.672 50.2148 66.664C52.5188 63.656 53.6708 59.4 53.6708 53.896C53.6708 48.008 52.4548 43.624 50.0227 40.744C47.6547 37.864 44.4227 36.424 40.3268 36.424C35.5908 36.424 32.0068 38.056 29.5747 41.32C27.2068 44.584 26.0228 48.744 26.0228 53.8C26.0228 59.048 27.2388 63.272 29.6708 66.472C32.1668 69.608 35.7188 71.176 40.3268 71.176ZM76.4603 73.96C73.3883 73.96 70.8923 73.544 68.9723 72.712C67.0523 71.816 65.5803 70.728 64.5563 69.448C63.5323 68.168 62.7963 66.92 62.3483 65.704C61.9643 64.424 61.7402 63.368 61.6762 62.536C61.6122 61.64 61.5803 61.192 61.5803 61.192H64.2683C64.2683 61.256 64.3323 61.832 64.4603 62.92C64.5882 64.008 65.0043 65.256 65.7083 66.664C66.4123 68.008 67.5963 69.192 69.2603 70.216C70.9883 71.24 73.4203 71.752 76.5563 71.752C78.7323 71.752 80.8443 71.496 82.8923 70.984C84.9403 70.472 86.6363 69.64 87.9803 68.488C89.3243 67.272 89.9643 65.672 89.9003 63.688C89.9003 61.384 89.2283 59.624 87.8843 58.408C86.5403 57.192 84.8123 56.296 82.7003 55.72C80.5883 55.144 78.3803 54.632 76.0763 54.184C73.7723 53.736 71.5643 53.16 69.4523 52.456C67.4043 51.752 65.7403 50.696 64.4603 49.288C63.1803 47.816 62.5723 45.768 62.6363 43.144C62.7003 40.328 64.1083 37.992 66.8602 36.136C69.6122 34.216 73.1962 33.256 77.6123 33.256C79.0203 33.256 80.5883 33.416 82.3162 33.736C84.0443 34.056 85.6763 34.664 87.2123 35.56C88.8123 36.392 90.0923 37.64 91.0523 39.304C92.0123 40.904 92.3963 43.048 92.2043 45.736H89.5163C89.6443 43.56 89.2923 41.832 88.4603 40.552C87.6283 39.208 86.5403 38.184 85.1962 37.48C83.8523 36.776 82.4443 36.328 80.9723 36.136C79.5003 35.88 78.1883 35.752 77.0363 35.752C73.8363 35.752 71.0523 36.36 68.6843 37.576C66.3163 38.792 65.1323 40.648 65.1323 43.144C65.1323 45.192 65.7723 46.76 67.0523 47.848C68.3963 48.936 70.0923 49.768 72.1403 50.344C74.2523 50.856 76.4603 51.336 78.7643 51.784C81.0683 52.232 83.2443 52.872 85.2923 53.704C87.4043 54.472 89.1003 55.624 90.3803 57.16C91.7243 58.696 92.3963 60.872 92.3963 63.688C92.3963 66.184 91.6603 68.2 90.1883 69.736C88.7163 71.208 86.7643 72.296 84.3323 73C81.9003 73.64 79.2763 73.96 76.4603 73.96ZM101.674 73.096H99.0825V18.952H101.674V58.6L127.498 34.216H131.242L113.098 51.4L131.627 73.192H128.17L111.274 53.128L101.674 62.152V73.096ZM118.044 16.168V0.935997H175.004V16.168H155.42V73H137.5V16.168H118.044ZM178.776 74.28C171.522 74.28 166.488 71.8907 163.672 67.112C160.941 62.248 159.576 55.6773 159.576 47.4C159.576 41.8533 160.173 37.032 161.368 32.936C162.562 28.84 164.568 25.6827 167.384 23.464C170.2 21.16 173.997 20.008 178.776 20.008C182.274 20.008 185.09 20.52 187.224 21.544C189.442 22.4827 191.149 23.592 192.344 24.872C193.538 26.152 194.349 27.304 194.776 28.328C195.202 29.2667 195.416 29.736 195.416 29.736H195.672V20.008H214.104V73H198.488L195.672 65.832H195.416C195.501 65.832 195.288 66.2587 194.776 67.112C194.264 67.9653 193.368 68.9467 192.088 70.056C190.893 71.1653 189.186 72.1467 186.968 73C184.834 73.8533 182.104 74.28 178.776 74.28ZM186.328 59.56C189.229 59.56 191.32 59.0053 192.6 57.896C193.965 56.7013 194.818 55.1653 195.16 53.288C195.501 51.4107 195.672 49.4907 195.672 47.528C195.672 45.48 195.501 43.56 195.16 41.768C194.818 39.8907 193.965 38.3973 192.6 37.288C191.32 36.1787 189.229 35.624 186.328 35.624C183.426 35.624 181.293 36.2213 179.928 37.416C178.648 38.5253 177.837 39.976 177.496 41.768C177.154 43.56 176.984 45.48 176.984 47.528C176.984 49.576 177.154 51.5387 177.496 53.416C177.837 55.208 178.648 56.7013 179.928 57.896C181.293 59.0053 183.426 59.56 186.328 59.56ZM216.084 73V0.935997H233.492V73H216.084ZM253.919 73H235.999V0.935997H253.919V40.744L270.303 19.624H291.807L271.327 41.64L292.191 72.872H271.071L258.911 55.08L253.919 60.456V73ZM312.002 74.28C311.404 74.28 310.124 74.1947 308.162 74.024C306.284 73.9387 304.108 73.5973 301.634 73C299.244 72.3173 296.898 71.2507 294.594 69.8C292.29 68.3493 290.37 66.3867 288.834 63.912C287.383 61.352 286.658 58.0667 286.658 54.056H303.042C303.042 54.1413 303.042 54.568 303.042 55.336C303.127 56.104 303.383 56.9573 303.81 57.896C304.322 58.8347 305.132 59.688 306.242 60.456C307.436 61.1387 309.186 61.48 311.49 61.48C314.391 61.48 316.183 60.968 316.866 59.944C317.548 58.92 317.89 58.152 317.89 57.64C317.89 56.36 317.164 55.336 315.714 54.568C314.263 53.8 312.386 53.1173 310.082 52.52C307.778 51.8373 305.303 51.112 302.658 50.344C300.098 49.4907 297.666 48.424 295.362 47.144C293.058 45.7787 291.18 44.0293 289.73 41.896C288.279 39.7627 287.554 37.032 287.554 33.704C287.554 28.2427 289.559 24.2747 293.57 21.8C297.666 19.3253 302.786 18.088 308.93 18.088C316.61 18.088 322.839 19.88 327.618 23.464C332.482 26.9627 334.999 32.1253 335.17 38.952H319.042C319.042 35.9653 318.06 33.96 316.098 32.936C314.22 31.912 312.13 31.4 309.826 31.4C307.351 31.4 305.73 31.8267 304.962 32.68C304.194 33.448 303.81 34.2587 303.81 35.112C303.81 36.648 304.535 37.8853 305.986 38.824C307.522 39.6773 309.442 40.4453 311.746 41.128C314.135 41.8107 316.652 42.536 319.298 43.304C322.028 44.072 324.546 45.096 326.85 46.376C329.239 47.5707 331.159 49.192 332.61 51.24C334.146 53.2027 334.914 55.7627 334.914 58.92C334.914 63.8693 332.866 67.6667 328.77 70.312C324.759 72.9573 319.17 74.28 312.002 74.28Z" fill="white"/>
</svg>
